# xmcd
#
# Track frame offsets:
#	150
#	66938
#	161754
#	200339
#
# Disc length: 3321 seconds
#
# Revision: 1
# Processed by: cddbd v1.5.2PL0 Copyright (c) Steve Scherf et al.
# Submitted via: audiograbber 1.83.01
#
DISCID=330cf704
DTITLE=Grateful Dead - 77-09-03 Raceway Park, Englishtown NJ
DYEAR=1900
DGENRE=
TTITLE0=He's Gone
TTITLE1=Not Fade Away
TTITLE2=Truckin
TTITLE3=Terrapin Station
EXTD=
EXTT0=
EXTT1=
EXTT2=
EXTT3=
PLAYORDER=
